<?xml version="1.0" encoding="UTF-8" standalone="no"?>
<!DOCTYPE svg PUBLIC "-//W3C//DTD SVG 1.1//EN"
 "http://www.w3.org/Graphics/SVG/1.1/DTD/svg11.dtd">
<!-- Generated by graphviz version 2.44.1 (20200629.0846)
 -->
<!-- Pages: 1 -->
<svg width="273pt" height="181pt"
 viewBox="0.00 0.00 273.00 181.00" xmlns="http://www.w3.org/2000/svg" xmlns:xlink="http://www.w3.org/1999/xlink">
<g id="graph0" class="graph" transform="scale(1 1) rotate(0) translate(4 177)">
<polygon fill="white" stroke="transparent" points="-4,4 -4,-177 269,-177 269,4 -4,4"/>
<g id="clust2" class="cluster">
<title>cluster_ExprGraph</title>
<polygon fill="lightgray" stroke="lightgray" points="8,-68 8,-165 257,-165 257,-68 8,-68"/>
<text text-anchor="middle" x="132.5" y="-149.8" font-family="Times,serif" font-size="14.00">ExprGraph</text>
</g>
<!-- Node_0xc0002301c0 -->
<g id="0xc0002301c0" class="node">
<title>Node_0xc0002301c0</title>
<path fill="white" stroke="black" d="M28.5,-76.5C28.5,-76.5 105.5,-76.5 105.5,-76.5 111.5,-76.5 117.5,-82.5 117.5,-88.5 117.5,-88.5 117.5,-121.5 117.5,-121.5 117.5,-127.5 111.5,-133.5 105.5,-133.5 105.5,-133.5 28.5,-133.5 28.5,-133.5 22.5,-133.5 16.5,-127.5 16.5,-121.5 16.5,-121.5 16.5,-88.5 16.5,-88.5 16.5,-82.5 22.5,-76.5 28.5,-76.5"/>
<text text-anchor="middle" x="51" y="-121.5" font-family="Times,serif" font-size="10.00">sigmoid(%0)</text>
<polyline fill="none" stroke="black" points="85.5,-114.5 85.5,-133.5 "/>
<text text-anchor="middle" x="101.5" y="-121.5" font-family="Times,serif" font-size="10.00">0x2</text>
<polyline fill="none" stroke="black" points="16.5,-114.5 117.5,-114.5 "/>
<text text-anchor="middle" x="36.5" y="-102.5" font-family="Times,serif" font-size="10.00">Op</text>
<polyline fill="none" stroke="black" points="56.5,-95.5 56.5,-114.5 "/>
<text text-anchor="middle" x="87" y="-102.5" font-family="Times,serif" font-size="10.00">sigmoid</text>
<polyline fill="none" stroke="black" points="16.5,-95.5 117.5,-95.5 "/>
<text text-anchor="middle" x="46" y="-83.5" font-family="Times,serif" font-size="10.00">Shape</text>
<polyline fill="none" stroke="black" points="75.5,-76.5 75.5,-95.5 "/>
<text text-anchor="middle" x="96.5" y="-83.5" font-family="Times,serif" font-size="10.00">()</text>
</g>
<!-- Node_0xc000230000 -->
<g id="0xc000230000" class="node">
<title>Node_0xc000230000</title>
<path fill="yellow" stroke="black" d="M43,-0.5C43,-0.5 109,-0.5 109,-0.5 115,-0.5 121,-6.5 121,-12.5 121,-12.5 121,-45.5 121,-45.5 121,-51.5 115,-57.5 109,-57.5 109,-57.5 43,-57.5 43,-57.5 37,-57.5 31,-51.5 31,-45.5 31,-45.5 31,-12.5 31,-12.5 31,-6.5 37,-0.5 43,-0.5"/>
<text text-anchor="middle" x="51" y="-45.5" font-family="Times,serif" font-size="10.00">x</text>
<polyline fill="none" stroke="black" points="71,-38.5 71,-57.5 "/>
<text text-anchor="middle" x="96" y="-45.5" font-family="Times,serif" font-size="10.00">0x0</text>
<polyline fill="none" stroke="black" points="31,-38.5 121,-38.5 "/>
<text text-anchor="middle" x="45.5" y="-26.5" font-family="Times,serif" font-size="10.00">Op</text>
<polyline fill="none" stroke="black" points="60,-19.5 60,-38.5 "/>
<text text-anchor="middle" x="90.5" y="-26.5" font-family="Times,serif" font-size="10.00">%!s(&lt;nil&gt;)</text>
<polyline fill="none" stroke="black" points="31,-19.5 121,-19.5 "/>
<text text-anchor="middle" x="58" y="-7.5" font-family="Times,serif" font-size="10.00">Shape</text>
<polyline fill="none" stroke="black" points="85,-0.5 85,-19.5 "/>
<text text-anchor="middle" x="103" y="-7.5" font-family="Times,serif" font-size="10.00">()</text>
</g>
<!-- Node_0xc0002301c0&#45;&gt;Node_0xc000230000 -->
<g id="edge1" class="edge">
<title>Node_0xc0002301c0&#45;&gt;Node_0xc000230000</title>
<path fill="none" stroke="black" d="M70.35,-76.45C70.69,-73.69 71.03,-70.86 71.38,-68.02"/>
<polygon fill="black" stroke="black" points="74.88,-68.17 72.62,-57.82 67.93,-67.33 74.88,-68.17"/>
</g>
<!-- Node_0xc0002302a0 -->
<g id="0xc0002302a0" class="node">
<title>Node_0xc0002302a0</title>
<path fill="white" stroke="black" d="M147.5,-76.5C147.5,-76.5 236.5,-76.5 236.5,-76.5 242.5,-76.5 248.5,-82.5 248.5,-88.5 248.5,-88.5 248.5,-121.5 248.5,-121.5 248.5,-127.5 242.5,-133.5 236.5,-133.5 236.5,-133.5 147.5,-133.5 147.5,-133.5 141.5,-133.5 135.5,-127.5 135.5,-121.5 135.5,-121.5 135.5,-88.5 135.5,-88.5 135.5,-82.5 141.5,-76.5 147.5,-76.5"/>
<text text-anchor="middle" x="176" y="-121.5" font-family="Times,serif" font-size="10.00">+ false(%0, %1)</text>
<polyline fill="none" stroke="black" points="216.5,-114.5 216.5,-133.5 "/>
<text text-anchor="middle" x="232.5" y="-121.5" font-family="Times,serif" font-size="10.00">0x3</text>
<polyline fill="none" stroke="black" points="135.5,-114.5 248.5,-114.5 "/>
<text text-anchor="middle" x="160" y="-102.5" font-family="Times,serif" font-size="10.00">Op</text>
<polyline fill="none" stroke="black" points="184.5,-95.5 184.5,-114.5 "/>
<text text-anchor="middle" x="216.5" y="-102.5" font-family="Times,serif" font-size="10.00">+ false</text>
<polyline fill="none" stroke="black" points="135.5,-95.5 248.5,-95.5 "/>
<text text-anchor="middle" x="168" y="-83.5" font-family="Times,serif" font-size="10.00">Shape</text>
<polyline fill="none" stroke="black" points="200.5,-76.5 200.5,-95.5 "/>
<text text-anchor="middle" x="224.5" y="-83.5" font-family="Times,serif" font-size="10.00">()</text>
</g>
<!-- Node_0xc0002302a0&#45;&gt;Node_0xc000230000 -->
<g id="edge2" class="edge">
<title>Node_0xc0002302a0&#45;&gt;Node_0xc000230000</title>
<path fill="none" stroke="black" d="M148.81,-76.45C142.01,-72.11 134.93,-67.59 127.96,-63.15"/>
<polygon fill="black" stroke="black" points="129.54,-60.01 119.23,-57.58 125.78,-65.91 129.54,-60.01"/>
</g>
<!-- Node_0xc0002300e0 -->
<g id="0xc0002300e0" class="node">
<title>Node_0xc0002300e0</title>
<path fill="yellow" stroke="black" d="M159,-0.5C159,-0.5 225,-0.5 225,-0.5 231,-0.5 237,-6.5 237,-12.5 237,-12.5 237,-45.5 237,-45.5 237,-51.5 231,-57.5 225,-57.5 225,-57.5 159,-57.5 159,-57.5 153,-57.5 147,-51.5 147,-45.5 147,-45.5 147,-12.5 147,-12.5 147,-6.5 153,-0.5 159,-0.5"/>
<text text-anchor="middle" x="167" y="-45.5" font-family="Times,serif" font-size="10.00">y</text>
<polyline fill="none" stroke="black" points="187,-38.5 187,-57.5 "/>
<text text-anchor="middle" x="212" y="-45.5" font-family="Times,serif" font-size="10.00">0x1</text>
<polyline fill="none" stroke="black" points="147,-38.5 237,-38.5 "/>
<text text-anchor="middle" x="161.5" y="-26.5" font-family="Times,serif" font-size="10.00">Op</text>
<polyline fill="none" stroke="black" points="176,-19.5 176,-38.5 "/>
<text text-anchor="middle" x="206.5" y="-26.5" font-family="Times,serif" font-size="10.00">%!s(&lt;nil&gt;)</text>
<polyline fill="none" stroke="black" points="147,-19.5 237,-19.5 "/>
<text text-anchor="middle" x="174" y="-7.5" font-family="Times,serif" font-size="10.00">Shape</text>
<polyline fill="none" stroke="black" points="201,-0.5 201,-19.5 "/>
<text text-anchor="middle" x="219" y="-7.5" font-family="Times,serif" font-size="10.00">()</text>
</g>
<!-- Node_0xc0002302a0&#45;&gt;Node_0xc0002300e0 -->
<g id="edge3" class="edge">
<title>Node_0xc0002302a0&#45;&gt;Node_0xc0002300e0</title>
<path fill="none" stroke="black" d="M192,-76.45C192,-73.69 192,-70.86 192,-68.02"/>
<polygon fill="black" stroke="black" points="195.5,-67.82 192,-57.82 188.5,-67.82 195.5,-67.82"/>
</g>
</g>
</svg>
