<?xml version="1.0" encoding="UTF-8" standalone="no"?>
<!DOCTYPE svg PUBLIC "-//W3C//DTD SVG 1.1//EN"
 "http://www.w3.org/Graphics/SVG/1.1/DTD/svg11.dtd">
<!-- Generated by graphviz version 2.44.1 (20200629.0846)
 -->
<!-- Title: G Pages: 1 -->
<svg width="1322pt" height="125pt"
 viewBox="0.00 0.00 1322.00 125.00" xmlns="http://www.w3.org/2000/svg" xmlns:xlink="http://www.w3.org/1999/xlink">
<g id="graph0" class="graph" transform="scale(1 1) rotate(0) translate(4 121)">
<title>G</title>
<polygon fill="white" stroke="transparent" points="-4,4 -4,-121 1318,-121 1318,4 -4,4"/>
<!-- W -->
<g id="node1" class="node">
<title>W</title>
<ellipse fill="none" stroke="black" cx="27" cy="-99" rx="27" ry="18"/>
<text text-anchor="middle" x="27" y="-95.3" font-family="Times,serif" font-size="14.00">W</text>
</g>
<!-- subscriber1 -->
<g id="node2" class="node">
<title>subscriber1</title>
<polygon fill="none" stroke="black" points="169,-90 90,-90 90,-54 169,-54 169,-90"/>
<text text-anchor="middle" x="129.5" y="-68.3" font-family="Times,serif" font-size="14.00">subscriber1</text>
</g>
<!-- W&#45;&gt;subscriber1 -->
<g id="edge1" class="edge">
<title>W&#45;&gt;subscriber1</title>
<path fill="none" stroke="black" d="M52.33,-92.46C60.69,-90.22 70.38,-87.62 79.98,-85.04"/>
<polygon fill="black" stroke="black" points="81.14,-88.35 89.89,-82.37 79.33,-81.59 81.14,-88.35"/>
</g>
<!-- publisher1 -->
<g id="node4" class="node">
<title>publisher1</title>
<polygon fill="none" stroke="black" points="279,-90 205,-90 205,-54 279,-54 279,-90"/>
<text text-anchor="middle" x="242" y="-68.3" font-family="Times,serif" font-size="14.00">publisher1</text>
</g>
<!-- subscriber1&#45;&gt;publisher1 -->
<g id="edge3" class="edge">
<title>subscriber1&#45;&gt;publisher1</title>
<path fill="none" stroke="black" d="M169.15,-72C177.38,-72 186.15,-72 194.63,-72"/>
<polygon fill="black" stroke="black" points="194.78,-75.5 204.78,-72 194.78,-68.5 194.78,-75.5"/>
</g>
<!-- X -->
<g id="node3" class="node">
<title>X</title>
<ellipse fill="none" stroke="black" cx="27" cy="-45" rx="27" ry="18"/>
<text text-anchor="middle" x="27" y="-41.3" font-family="Times,serif" font-size="14.00">X</text>
</g>
<!-- X&#45;&gt;subscriber1 -->
<g id="edge2" class="edge">
<title>X&#45;&gt;subscriber1</title>
<path fill="none" stroke="black" d="M52.33,-51.54C60.69,-53.78 70.38,-56.38 79.98,-58.96"/>
<polygon fill="black" stroke="black" points="79.33,-62.41 89.89,-61.63 81.14,-55.65 79.33,-62.41"/>
</g>
<!-- mul -->
<g id="node5" class="node">
<title>mul</title>
<ellipse fill="none" stroke="black" cx="342" cy="-72" rx="27" ry="18"/>
<text text-anchor="middle" x="342" y="-68.3" font-family="Times,serif" font-size="14.00">mul</text>
</g>
<!-- publisher1&#45;&gt;mul -->
<g id="edge4" class="edge">
<title>publisher1&#45;&gt;mul</title>
<path fill="none" stroke="black" d="M279.21,-72C287.49,-72 296.3,-72 304.59,-72"/>
<polygon fill="black" stroke="black" points="304.73,-75.5 314.73,-72 304.73,-68.5 304.73,-75.5"/>
</g>
<!-- subscriber2 -->
<g id="node6" class="node">
<title>subscriber2</title>
<polygon fill="none" stroke="black" points="484,-63 405,-63 405,-27 484,-27 484,-63"/>
<text text-anchor="middle" x="444.5" y="-41.3" font-family="Times,serif" font-size="14.00">subscriber2</text>
</g>
<!-- mul&#45;&gt;subscriber2 -->
<g id="edge5" class="edge">
<title>mul&#45;&gt;subscriber2</title>
<path fill="none" stroke="black" d="M367.33,-65.46C375.69,-63.22 385.38,-60.62 394.98,-58.04"/>
<polygon fill="black" stroke="black" points="396.14,-61.35 404.89,-55.37 394.33,-54.59 396.14,-61.35"/>
</g>
<!-- publisher2 -->
<g id="node8" class="node">
<title>publisher2</title>
<polygon fill="none" stroke="black" points="594,-63 520,-63 520,-27 594,-27 594,-63"/>
<text text-anchor="middle" x="557" y="-41.3" font-family="Times,serif" font-size="14.00">publisher2</text>
</g>
<!-- subscriber2&#45;&gt;publisher2 -->
<g id="edge7" class="edge">
<title>subscriber2&#45;&gt;publisher2</title>
<path fill="none" stroke="black" d="M484.15,-45C492.38,-45 501.15,-45 509.63,-45"/>
<polygon fill="black" stroke="black" points="509.78,-48.5 519.78,-45 509.78,-41.5 509.78,-48.5"/>
</g>
<!-- b -->
<g id="node7" class="node">
<title>b</title>
<ellipse fill="none" stroke="black" cx="342" cy="-18" rx="27" ry="18"/>
<text text-anchor="middle" x="342" y="-14.3" font-family="Times,serif" font-size="14.00">b</text>
</g>
<!-- b&#45;&gt;subscriber2 -->
<g id="edge6" class="edge">
<title>b&#45;&gt;subscriber2</title>
<path fill="none" stroke="black" d="M367.33,-24.54C375.69,-26.78 385.38,-29.38 394.98,-31.96"/>
<polygon fill="black" stroke="black" points="394.33,-35.41 404.89,-34.63 396.14,-28.65 394.33,-35.41"/>
</g>
<!-- add -->
<g id="node9" class="node">
<title>add</title>
<ellipse fill="none" stroke="black" cx="657" cy="-72" rx="27" ry="18"/>
<text text-anchor="middle" x="657" y="-68.3" font-family="Times,serif" font-size="14.00">add</text>
</g>
<!-- publisher2&#45;&gt;add -->
<g id="edge8" class="edge">
<title>publisher2&#45;&gt;add</title>
<path fill="none" stroke="black" d="M594.21,-54.98C603.32,-57.49 613.07,-60.17 622.07,-62.65"/>
<polygon fill="black" stroke="black" points="621.26,-66.06 631.83,-65.34 623.12,-59.31 621.26,-66.06"/>
</g>
<!-- sub -->
<g id="node10" class="node">
<title>sub</title>
<ellipse fill="none" stroke="black" cx="657" cy="-18" rx="27" ry="18"/>
<text text-anchor="middle" x="657" y="-14.3" font-family="Times,serif" font-size="14.00">sub</text>
</g>
<!-- publisher2&#45;&gt;sub -->
<g id="edge9" class="edge">
<title>publisher2&#45;&gt;sub</title>
<path fill="none" stroke="black" d="M594.21,-35.02C603.32,-32.51 613.07,-29.83 622.07,-27.35"/>
<polygon fill="black" stroke="black" points="623.12,-30.69 631.83,-24.66 621.26,-23.94 623.12,-30.69"/>
</g>
<!-- subscriber3 -->
<g id="node11" class="node">
<title>subscriber3</title>
<polygon fill="none" stroke="black" points="799,-63 720,-63 720,-27 799,-27 799,-63"/>
<text text-anchor="middle" x="759.5" y="-41.3" font-family="Times,serif" font-size="14.00">subscriber3</text>
</g>
<!-- add&#45;&gt;subscriber3 -->
<g id="edge10" class="edge">
<title>add&#45;&gt;subscriber3</title>
<path fill="none" stroke="black" d="M682.33,-65.46C690.69,-63.22 700.38,-60.62 709.98,-58.04"/>
<polygon fill="black" stroke="black" points="711.14,-61.35 719.89,-55.37 709.33,-54.59 711.14,-61.35"/>
</g>
<!-- sub&#45;&gt;subscriber3 -->
<g id="edge11" class="edge">
<title>sub&#45;&gt;subscriber3</title>
<path fill="none" stroke="black" d="M682.33,-24.54C690.69,-26.78 700.38,-29.38 709.98,-31.96"/>
<polygon fill="black" stroke="black" points="709.33,-35.41 719.89,-34.63 711.14,-28.65 709.33,-35.41"/>
</g>
<!-- publisher3 -->
<g id="node12" class="node">
<title>publisher3</title>
<polygon fill="none" stroke="black" points="909,-63 835,-63 835,-27 909,-27 909,-63"/>
<text text-anchor="middle" x="872" y="-41.3" font-family="Times,serif" font-size="14.00">publisher3</text>
</g>
<!-- subscriber3&#45;&gt;publisher3 -->
<g id="edge12" class="edge">
<title>subscriber3&#45;&gt;publisher3</title>
<path fill="none" stroke="black" d="M799.15,-45C807.38,-45 816.15,-45 824.63,-45"/>
<polygon fill="black" stroke="black" points="824.78,-48.5 834.78,-45 824.78,-41.5 824.78,-48.5"/>
</g>
<!-- add2 -->
<g id="node13" class="node">
<title>add2</title>
<ellipse fill="none" stroke="black" cx="972" cy="-45" rx="27" ry="18"/>
<text text-anchor="middle" x="972" y="-41.3" font-family="Times,serif" font-size="14.00">add</text>
</g>
<!-- publisher3&#45;&gt;add2 -->
<g id="edge13" class="edge">
<title>publisher3&#45;&gt;add2</title>
<path fill="none" stroke="black" d="M909.21,-45C917.49,-45 926.3,-45 934.59,-45"/>
<polygon fill="black" stroke="black" points="934.73,-48.5 944.73,-45 934.73,-41.5 934.73,-48.5"/>
</g>
<!-- subscriber4 -->
<g id="node14" class="node">
<title>subscriber4</title>
<polygon fill="none" stroke="black" points="1114,-63 1035,-63 1035,-27 1114,-27 1114,-63"/>
<text text-anchor="middle" x="1074.5" y="-41.3" font-family="Times,serif" font-size="14.00">subscriber4</text>
</g>
<!-- add2&#45;&gt;subscriber4 -->
<g id="edge14" class="edge">
<title>add2&#45;&gt;subscriber4</title>
<path fill="none" stroke="black" d="M999.14,-45C1007,-45 1015.89,-45 1024.72,-45"/>
<polygon fill="black" stroke="black" points="1024.99,-48.5 1034.99,-45 1024.99,-41.5 1024.99,-48.5"/>
</g>
<!-- publisher4 -->
<g id="node15" class="node">
<title>publisher4</title>
<polygon fill="none" stroke="black" points="1224,-63 1150,-63 1150,-27 1224,-27 1224,-63"/>
<text text-anchor="middle" x="1187" y="-41.3" font-family="Times,serif" font-size="14.00">publisher4</text>
</g>
<!-- subscriber4&#45;&gt;publisher4 -->
<g id="edge15" class="edge">
<title>subscriber4&#45;&gt;publisher4</title>
<path fill="none" stroke="black" d="M1114.15,-45C1122.38,-45 1131.15,-45 1139.63,-45"/>
<polygon fill="black" stroke="black" points="1139.78,-48.5 1149.78,-45 1139.78,-41.5 1139.78,-48.5"/>
</g>
<!-- σ -->
<g id="node16" class="node">
<title>σ</title>
<ellipse fill="none" stroke="black" cx="1287" cy="-45" rx="27" ry="18"/>
<text text-anchor="middle" x="1287" y="-41.3" font-family="Times,serif" font-size="14.00">σ</text>
</g>
<!-- publisher4&#45;&gt;σ -->
<g id="edge16" class="edge">
<title>publisher4&#45;&gt;σ</title>
<path fill="none" stroke="black" d="M1224.21,-45C1232.49,-45 1241.3,-45 1249.59,-45"/>
<polygon fill="black" stroke="black" points="1249.73,-48.5 1259.73,-45 1249.73,-41.5 1249.73,-48.5"/>
</g>
</g>
</svg>
