<?xml version="1.0" encoding="UTF-8" standalone="no"?>
<!DOCTYPE svg PUBLIC "-//W3C//DTD SVG 1.1//EN"
 "http://www.w3.org/Graphics/SVG/1.1/DTD/svg11.dtd">
<!-- Generated by graphviz version 2.44.1 (20200629.0846)
 -->
<!-- Title: G Pages: 1 -->
<svg width="78pt" height="123pt"
 viewBox="0.00 0.00 77.60 123.20" xmlns="http://www.w3.org/2000/svg" xmlns:xlink="http://www.w3.org/1999/xlink">
<g id="graph0" class="graph" transform="scale(1 1) rotate(0) translate(4 119.2)">
<title>G</title>
<polygon fill="white" stroke="transparent" points="-4,4 -4,-119.2 73.6,-119.2 73.6,4 -4,4"/>
<!-- publisher -->
<g id="node1" class="node">
<title>publisher</title>
<polygon fill="none" stroke="black" points="68.3,-75.6 1.3,-75.6 1.3,-39.6 68.3,-39.6 68.3,-75.6"/>
<text text-anchor="middle" x="34.8" y="-53.9" font-family="Times,serif" font-size="14.00">publisher</text>
</g>
<!-- a -->
<g id="node3" class="node">
<title>a</title>
<ellipse fill="black" stroke="black" cx="1.8" cy="-1.8" rx="1.8" ry="1.8"/>
</g>
<!-- publisher&#45;&gt;a -->
<g id="edge2" class="edge">
<title>publisher&#45;&gt;a</title>
<path fill="none" stroke="black" d="M24.36,-39.58C18.87,-30.63 12.35,-20 7.73,-12.47"/>
<polygon fill="black" stroke="black" points="10.58,-10.43 2.37,-3.73 4.62,-14.09 10.58,-10.43"/>
</g>
<!-- b -->
<g id="node4" class="node">
<title>b</title>
<ellipse fill="black" stroke="black" cx="23.8" cy="-1.8" rx="1.8" ry="1.8"/>
</g>
<!-- publisher&#45;&gt;b -->
<g id="edge3" class="edge">
<title>publisher&#45;&gt;b</title>
<path fill="none" stroke="black" d="M31.32,-39.58C29.58,-31.07 27.53,-21.02 26,-13.58"/>
<polygon fill="black" stroke="black" points="29.42,-12.83 23.99,-3.73 22.57,-14.23 29.42,-12.83"/>
</g>
<!-- c -->
<g id="node5" class="node">
<title>c</title>
<ellipse fill="black" stroke="black" cx="45.8" cy="-1.8" rx="1.8" ry="1.8"/>
</g>
<!-- publisher&#45;&gt;c -->
<g id="edge4" class="edge">
<title>publisher&#45;&gt;c</title>
<path fill="none" stroke="black" d="M38.28,-39.58C40.02,-31.07 42.07,-21.02 43.6,-13.58"/>
<polygon fill="black" stroke="black" points="47.03,-14.23 45.61,-3.73 40.18,-12.83 47.03,-14.23"/>
</g>
<!-- d -->
<g id="node6" class="node">
<title>d</title>
<ellipse fill="black" stroke="black" cx="67.8" cy="-1.8" rx="1.8" ry="1.8"/>
</g>
<!-- publisher&#45;&gt;d -->
<g id="edge5" class="edge">
<title>publisher&#45;&gt;d</title>
<path fill="none" stroke="black" stroke-dasharray="5,2" d="M45.24,-39.58C50.73,-30.63 57.25,-20 61.87,-12.47"/>
<polygon fill="black" stroke="black" points="64.98,-14.09 67.23,-3.73 59.02,-10.43 64.98,-14.09"/>
</g>
<!-- src -->
<g id="node2" class="node">
<title>src</title>
<ellipse fill="black" stroke="black" cx="34.8" cy="-113.4" rx="1.8" ry="1.8"/>
</g>
<!-- src&#45;&gt;publisher -->
<g id="edge1" class="edge">
<title>src&#45;&gt;publisher</title>
<path fill="none" stroke="black" d="M34.8,-111.47C34.8,-108.24 34.8,-97.15 34.8,-85.95"/>
<polygon fill="black" stroke="black" points="38.3,-85.86 34.8,-75.86 31.3,-85.86 38.3,-85.86"/>
</g>
</g>
</svg>
