<?xml version="1.0" encoding="UTF-8" standalone="no"?>
<!DOCTYPE svg PUBLIC "-//W3C//DTD SVG 1.1//EN"
 "http://www.w3.org/Graphics/SVG/1.1/DTD/svg11.dtd">
<!-- Generated by graphviz version 2.44.1 (20200629.0846)
 -->
<!-- Title: G Pages: 1 -->
<svg width="80pt" height="123pt"
 viewBox="0.00 0.00 80.00 123.20" xmlns="http://www.w3.org/2000/svg" xmlns:xlink="http://www.w3.org/1999/xlink">
<g id="graph0" class="graph" transform="scale(1 1) rotate(0) translate(4 119.2)">
<title>G</title>
<polygon fill="white" stroke="transparent" points="-4,4 -4,-119.2 76,-119.2 76,4 -4,4"/>
<!-- subscriber -->
<g id="node1" class="node">
<title>subscriber</title>
<polygon fill="none" stroke="black" points="72,-75.6 0,-75.6 0,-39.6 72,-39.6 72,-75.6"/>
<text text-anchor="middle" x="36" y="-53.9" font-family="Times,serif" font-size="14.00">subscriber</text>
</g>
<!-- src -->
<g id="node2" class="node">
<title>src</title>
<ellipse fill="black" stroke="black" cx="36" cy="-1.8" rx="1.8" ry="1.8"/>
</g>
<!-- subscriber&#45;&gt;src -->
<g id="edge1" class="edge">
<title>subscriber&#45;&gt;src</title>
<path fill="none" stroke="black" d="M36,-39.58C36,-31.17 36,-21.28 36,-13.87"/>
<polygon fill="black" stroke="black" points="39.5,-13.73 36,-3.73 32.5,-13.73 39.5,-13.73"/>
</g>
<!-- a -->
<g id="node3" class="node">
<title>a</title>
<ellipse fill="black" stroke="black" cx="3" cy="-113.4" rx="1.8" ry="1.8"/>
</g>
<!-- a&#45;&gt;subscriber -->
<g id="edge2" class="edge">
<title>a&#45;&gt;subscriber</title>
<path fill="none" stroke="black" d="M3.57,-111.47C5.63,-108.11 12.92,-96.23 20.07,-84.58"/>
<polygon fill="black" stroke="black" points="23.17,-86.21 25.41,-75.86 17.2,-82.55 23.17,-86.21"/>
</g>
<!-- b -->
<g id="node4" class="node">
<title>b</title>
<ellipse fill="black" stroke="black" cx="25" cy="-113.4" rx="1.8" ry="1.8"/>
</g>
<!-- b&#45;&gt;subscriber -->
<g id="edge3" class="edge">
<title>b&#45;&gt;subscriber</title>
<path fill="none" stroke="black" d="M25.19,-111.47C25.85,-108.24 28.12,-97.15 30.41,-85.95"/>
<polygon fill="black" stroke="black" points="33.9,-86.36 32.47,-75.86 27.04,-84.95 33.9,-86.36"/>
</g>
<!-- c -->
<g id="node5" class="node">
<title>c</title>
<ellipse fill="black" stroke="black" cx="47" cy="-113.4" rx="1.8" ry="1.8"/>
</g>
<!-- c&#45;&gt;subscriber -->
<g id="edge4" class="edge">
<title>c&#45;&gt;subscriber</title>
<path fill="none" stroke="black" d="M46.81,-111.47C46.15,-108.24 43.88,-97.15 41.59,-85.95"/>
<polygon fill="black" stroke="black" points="44.96,-84.95 39.53,-75.86 38.1,-86.36 44.96,-84.95"/>
</g>
<!-- d -->
<g id="node6" class="node">
<title>d</title>
<ellipse fill="black" stroke="black" cx="69" cy="-113.4" rx="1.8" ry="1.8"/>
</g>
<!-- d&#45;&gt;subscriber -->
<g id="edge5" class="edge">
<title>d&#45;&gt;subscriber</title>
<path fill="none" stroke="black" stroke-dasharray="5,2" d="M68.43,-111.47C66.37,-108.11 59.08,-96.23 51.93,-84.58"/>
<polygon fill="black" stroke="black" points="54.8,-82.55 46.59,-75.86 48.83,-86.21 54.8,-82.55"/>
</g>
</g>
</svg>
